<svg width="22" height="23" viewBox="0 0 22 23" fill="none" xmlns="http://www.w3.org/2000/svg">
<g filter="url(#filter0_d_21_6166)">
<circle cx="11.5007" cy="10.5" r="4.23116" fill="#00F66D"/>
<path d="M3.18228 5.69776C2.75396 5.45047 2.20246 5.59587 1.99256 6.0437C1.3404 7.43505 1 8.95613 1 10.5C1 12.0439 1.3404 13.565 1.99256 14.9563C2.20246 15.4041 2.75396 15.5495 3.18228 15.3022L5.26849 14.0978C5.69682 13.8505 5.83692 13.3043 5.65281 12.8453C5.35471 12.1021 5.2 11.3062 5.2 10.5C5.2 9.69378 5.35471 8.89792 5.6528 8.15472C5.83692 7.69568 5.69682 7.14953 5.26849 6.90224L3.18228 5.69776Z" fill="#00F66D"/>
<path d="M13.9858 1.22279C14.1138 0.745056 13.8306 0.249987 13.3437 0.163139C11.831 -0.106683 10.2737 -0.0418033 8.7824 0.357779C7.29114 0.757361 5.90999 1.47985 4.73484 2.46989C4.3566 2.78855 4.35889 3.35889 4.70861 3.70861L6.412 5.412C6.76172 5.76172 7.32553 5.7557 7.72127 5.45905C8.36199 4.97876 9.09069 4.62333 9.86944 4.41467C10.6482 4.206 11.457 4.14946 12.252 4.24504C12.743 4.30407 13.2343 4.02739 13.3623 3.54966L13.9858 1.22279Z" fill="#00F66D"/>
<path d="M4.70861 17.2914C4.35889 17.6411 4.3566 18.2115 4.73484 18.5301C5.90999 19.5201 7.29114 20.2426 8.7824 20.6422C10.2737 21.0418 11.831 21.1067 13.3437 20.8369C13.8306 20.75 14.1138 20.2549 13.9858 19.7772L13.3623 17.4503C13.2343 16.9726 12.7431 16.6959 12.252 16.755C11.457 16.8505 10.6482 16.794 9.86944 16.5853C9.09069 16.3767 8.36199 16.0212 7.72127 15.541C7.32553 15.2443 6.76172 15.2383 6.412 15.588L4.70861 17.2914Z" fill="#00F66D"/>
</g>
<defs>
<filter id="filter0_d_21_6166" x="0.00518143" y="0" width="16.7221" height="22.9896" filterUnits="userSpaceOnUse" color-interpolation-filters="sRGB">
<feFlood flood-opacity="0" result="BackgroundImageFix"/>
<feColorMatrix in="SourceAlpha" type="matrix" values="0 0 0 0 0 0 0 0 0 0 0 0 0 0 0 0 0 0 127 0" result="hardAlpha"/>
<feOffset dy="0.994819"/>
<feGaussianBlur stdDeviation="0.497409"/>
<feComposite in2="hardAlpha" operator="out"/>
<feColorMatrix type="matrix" values="0 0 0 0 0 0 0 0 0 0 0 0 0 0 0 0 0 0 0.25 0"/>
<feBlend mode="normal" in2="BackgroundImageFix" result="effect1_dropShadow_21_6166"/>
<feBlend mode="normal" in="SourceGraphic" in2="effect1_dropShadow_21_6166" result="shape"/>
</filter>
</defs>
</svg>
