<svg width="109" height="109" viewBox="0 0 109 109" fill="none" xmlns="http://www.w3.org/2000/svg">
<g filter="url(#filter0_d_118_1119)">
<circle cx="54.5007" cy="54.502" r="15.5149" transform="rotate(90 54.5007 54.502)" fill="#00F66D"/>
<path d="M44.7672 18.1768C44.6392 17.6991 44.1478 17.4146 43.6731 17.5537C37.4836 19.3674 31.8439 22.7089 27.2764 27.2763C22.7089 31.8438 19.3675 37.4835 17.5537 43.6731C17.4146 44.1477 17.6991 44.6392 18.1769 44.7672L31.3221 48.2895C31.7998 48.4175 32.2892 48.1333 32.4356 47.6609C33.545 44.0818 35.5099 40.8217 38.1658 38.1658C40.8217 35.5099 44.0819 33.5449 47.6609 32.4356C48.1333 32.2891 48.4175 31.7998 48.2895 31.3221L44.7672 18.1768Z" fill="#00F66D"/>
<path d="M87.0661 73.3025C87.4944 73.5497 88.0431 73.4034 88.2804 72.9695C91.3745 67.3103 92.9997 60.9596 92.9997 54.5002C92.9997 48.0408 91.3745 41.6902 88.2804 36.031C88.0431 35.597 87.4944 35.4507 87.0661 35.698L75.2804 42.5025C74.8521 42.7497 74.707 43.2967 74.9375 43.7343C76.6839 47.0495 77.5997 50.7442 77.5997 54.5002C77.5997 58.2562 76.6839 61.9509 74.9375 65.2661C74.707 65.7037 74.8521 66.2507 75.2804 66.498L87.0661 73.3025Z" fill="#00F66D"/>
<path d="M18.1767 64.2328C17.6989 64.3608 17.4144 64.8523 17.5535 65.3269C19.3673 71.5165 22.7087 77.1562 27.2762 81.7237C31.8437 86.2912 37.4834 89.6326 43.673 91.4464C44.1476 91.5855 44.6391 91.3009 44.7671 90.8232L48.2893 77.678C48.4173 77.2002 48.1332 76.7109 47.6608 76.5645C44.0817 75.4551 40.8216 73.4901 38.1657 70.8342C35.5098 68.1783 33.5448 64.9182 32.4354 61.3391C32.289 60.8667 31.7997 60.5826 31.3219 60.7106L18.1767 64.2328Z" fill="#00F66D"/>
</g>
<defs>
<filter id="filter0_d_118_1119" x="16.5228" y="17.5183" width="77.4721" height="75.953" filterUnits="userSpaceOnUse" color-interpolation-filters="sRGB">
<feFlood flood-opacity="0" result="BackgroundImageFix"/>
<feColorMatrix in="SourceAlpha" type="matrix" values="0 0 0 0 0 0 0 0 0 0 0 0 0 0 0 0 0 0 127 0" result="hardAlpha"/>
<feOffset dy="0.994819"/>
<feGaussianBlur stdDeviation="0.497409"/>
<feComposite in2="hardAlpha" operator="out"/>
<feColorMatrix type="matrix" values="0 0 0 0 0 0 0 0 0 0 0 0 0 0 0 0 0 0 0.25 0"/>
<feBlend mode="normal" in2="BackgroundImageFix" result="effect1_dropShadow_118_1119"/>
<feBlend mode="normal" in="SourceGraphic" in2="effect1_dropShadow_118_1119" result="shape"/>
</filter>
</defs>
</svg>
