<svg width="89" height="100" viewBox="0 0 89 100" fill="none" xmlns="http://www.w3.org/2000/svg">
<path d="M63.5769 0.235683C63.7602 1.08239 63.83 1.9902 63.8387 3.44793C63.8387 4.92312 63.8213 5.19372 63.638 5.89203C63.2539 7.35849 62.7389 8.50198 61.9009 9.76768C61.0193 11.1032 59.0902 12.8577 57.9729 13.3378L57.5277 13.5298L55.974 13.1283C51.819 12.0634 49.3923 11.723 45.2548 11.6357C41.6498 11.5658 39.3366 11.7404 36.072 12.3602C28.8881 13.7044 22.2366 16.777 16.493 21.3946C14.625 22.896 11.6048 25.9162 9.78045 28.1072C8.88137 29.1808 7.38873 31.3369 6.39363 32.9954C2.71875 39.1405 0.684906 45.5563 0.16117 52.7053C-0.0395957 55.4636 0.134983 59.6448 0.562701 62.4992C2.11645 72.8255 7.7117 82.8114 15.6812 89.4628C22.7691 95.381 31.2187 98.9512 40.0611 99.763C43.5702 100.086 44.6264 100.086 48.6155 99.7193C57.6412 98.8988 66.2479 95.2239 73.2049 89.2271C74.5404 88.0749 76.775 85.8491 77.8487 84.5921C83.924 77.5129 87.564 68.8887 88.3845 59.5924C88.5416 57.8117 88.5591 54.0234 88.4194 52.4172C87.564 42.4313 83.8193 33.6413 77.3337 26.3614C76.8448 25.8115 76.3124 25.2004 76.1553 25.0084L75.8672 24.6592L76.0331 23.83C76.3036 22.4334 76.3997 20.8796 76.3473 18.8545C76.2862 16.6984 76.2251 16.2271 75.7974 14.49C75.1078 11.688 73.7723 8.90351 72.0788 6.70382C71.2932 5.69127 69.5125 3.84946 68.4738 2.9853C68.0461 2.61868 67.243 2.03384 66.7018 1.67596C65.6718 1.01256 63.83 1.41004e-06 63.6292 1.41004e-06C63.5594 1.41004e-06 63.5419 0.0785618 63.5769 0.235683ZM63.4896 43.2082C65.3227 43.6708 66.5622 44.727 67.4612 46.5689C69.1372 50.0081 69.0499 55.1319 67.2081 60.509C65.8988 64.3497 63.9522 67.8151 61.2812 71.0448C60.1551 72.4065 57.0913 75.4791 55.8605 76.4742C51.9848 79.634 48.1005 81.5457 44.7224 81.9734C43.6051 82.1131 41.9553 82.0345 41.0911 81.7988C38.4986 81.0918 36.7179 79.1714 36.264 76.5964C36.1069 75.706 36.0895 73.5413 36.2204 72.4501C36.8925 67.0644 40.4277 59.9765 45.4556 53.9535C49.7328 48.8296 54.9614 44.8405 59.2299 43.4352C60.5654 42.9987 62.3112 42.9027 63.4896 43.2082ZM11.308 47.6687C11.9016 48.0179 13.0887 49.1613 13.8743 50.1303C17.3048 54.3987 21.8438 62.4119 24.9077 69.6569C26.7059 73.8817 27.2994 76.0639 27.2034 77.993C27.1423 79.0667 26.9241 79.7039 26.4702 80.1491C25.3005 81.2838 23.4238 81.1267 20.4821 79.634C18.6578 78.7088 17.5667 77.9406 15.7249 76.2647C10.0423 71.1233 6.76897 64.0093 6.56821 56.3889C6.51583 54.39 6.59439 53.2989 6.89991 51.876C7.25779 50.2175 7.79899 48.9693 8.48857 48.2186C9.37019 47.2497 10.2955 47.0664 11.308 47.6687Z" fill="#ECF8F9"/>
</svg>
