<svg width="129" height="100" viewBox="0 0 129 100" fill="none" xmlns="http://www.w3.org/2000/svg">
<path d="M26.0508 0.0384306C14.599 0.883868 9.96189 1.62683 6.86195 3.08713C5.22231 3.85571 1.78932 7.31432 1.04636 8.92834C-0.00402887 11.2853 0.662074 12.8993 2.91657 13.5911C5.35041 14.3084 9.06521 13.9497 9.39826 12.9762C9.62884 12.2332 9.34703 11.8489 8.1173 11.106C5.22231 9.33825 7.65615 8.15976 15.2907 7.59613C43.7538 5.44411 78.9547 17.4083 100.654 36.5972C109.544 44.4623 114.873 52.9423 115.847 60.7562C116.385 65.1115 115.309 70.0304 113.028 73.5403C111.722 75.5386 108.545 78.6385 106.367 80.0476C96.6577 86.3499 79.4927 88.9887 63.9162 86.5549L61.303 86.1706L61.1749 84.5822C61.0468 83.045 60.5088 63.1645 60.5088 59.7315V57.9637L65.9657 58.1174C70.1673 58.2199 72.2681 58.3993 75.2399 58.9116C81.7729 60.0389 86.948 61.6529 88.6645 63.1132C89.8429 64.0867 89.6636 64.7272 87.5372 67.033C86.2819 68.3908 85.872 69.0313 85.872 69.5693C85.872 70.6453 86.5381 70.9015 89.7405 71.0552L92.5074 71.1833L94.147 70.0048C96.9651 68.0065 98.4767 65.4702 98.5023 62.7802C98.5279 60.705 98.0924 59.3728 96.8114 57.477C92.6355 51.3283 80.0307 47.5367 63.8137 47.5367C60.5601 47.5367 60.2526 47.4854 60.2526 47.0755C60.2526 45.3846 59.6378 39.2104 59.2279 36.6484C58.4849 32.2419 57.6395 29.8081 56.3072 28.4246C55.0007 27.0668 54.1552 26.9643 53.1048 28.0147C51.2859 29.8081 50.4148 34.2402 49.3388 46.9218L49.2107 48.4846L47.1868 48.792C46.0595 48.9457 43.7282 49.4325 42.0117 49.868C32.635 52.1481 25.8203 55.1712 22.0542 58.7579C18.2882 62.2934 18.365 64.9578 22.4129 70.4147C27.2806 77.0245 36.8366 84.3516 46.5207 88.9375L48.9545 90.0904L49.1082 91.2945C49.6462 95.5729 50.466 97.8018 51.8751 98.8778C53.6685 100.236 56.9221 100.389 58.7155 99.1852C59.7402 98.5191 61.0212 96.3159 61.0212 95.2911C61.0212 94.958 61.1237 94.6506 61.2518 94.5481C61.3799 94.4713 62.917 94.7018 64.6592 95.0349C77.8275 97.6993 90.714 97.0332 102.396 93.0878C105.65 92.0118 111.978 88.835 114.642 86.9904C123.507 80.7905 128.682 71.8238 128.656 62.7802C128.579 50.1498 116.41 34.4452 96.2478 20.9694C86.9992 14.7952 74.1639 8.6209 63.7112 5.26477C52.6437 1.75493 43.6513 0.192147 33.3523 0.0384306C30.0474 -0.012808 26.7682 -0.012808 26.0508 0.0384306ZM48.9801 70.466C48.9801 78.4592 48.9033 82.6351 48.7239 82.6351C48.1091 82.6351 43.4207 80.6368 39.3729 78.6641C29.74 73.9758 22.336 68.0834 22.336 65.1371C22.336 61.9603 30.483 59.629 45.1372 58.5786C46.7512 58.4761 48.2884 58.348 48.5446 58.3224C48.9545 58.2968 48.9801 59.0397 48.9801 70.466Z" fill="#ECF8F9"/>
</svg>
