<svg width="99" height="100" viewBox="0 0 99 100" fill="none" xmlns="http://www.w3.org/2000/svg">
<path d="M20.5496 5.58623L20.4227 11.2147L14.7096 6.26334L8.99652 1.31201L8.86957 14.4732L8.78493 27.6345H4.29911C0.236479 27.6345 -0.144392 27.7191 0.0672028 28.3539C0.236479 29.031 1.1675 33.8977 1.1675 34.2785C1.1675 34.3632 4.97621 34.4055 9.63131 34.4055H18.0528L18.1798 27.973L18.3067 21.5828L24.0198 26.4918L29.7329 31.4432L29.9445 25.9417L30.156 20.3979L39.2546 28.3116C44.2483 32.6281 48.5648 36.2675 48.8611 36.3945C49.115 36.4791 53.5162 32.9667 58.6368 28.5232C63.7574 24.0797 68.0739 20.4402 68.2009 20.4402C68.3278 20.4402 68.4548 22.937 68.4548 25.9417V31.4432L74.2948 26.4072L80.0925 21.3712L80.2195 27.8884L80.3464 34.4055H88.514H96.7239L97.401 31.4855C97.7819 29.835 98.0781 28.3116 98.0781 28.1C98.0781 27.8037 96.5123 27.6345 93.8462 27.6345H89.6143L89.5297 14.3463L89.4027 1.0581L83.605 6.13638L77.765 11.1723V5.67087C77.765 2.6239 77.6803 0.127077 77.5534 0.127077C77.4264 0.127077 71.0363 5.58623 63.3342 12.2726C50.977 22.937 49.1996 24.3336 48.5225 23.8681C47.8877 23.4872 25.374 4.23202 21.6076 0.846501L20.6766 0.000119738L20.5496 5.58623Z" fill="#ECF8F9"/>
<path d="M8.91212 70.419C9.08139 70.9691 9.50458 73.0004 9.88546 74.9048L10.6049 78.4173H13.1863C14.5829 78.4173 16.5295 78.6289 17.4606 78.8828C19.0687 79.3483 35.5731 90.3513 44.4178 96.8261C46.7877 98.5612 48.8613 100 49.0729 100C49.2422 100 52.1199 98.0533 55.4207 95.6411C58.764 93.229 65.5773 88.4892 70.571 85.1037C80.0928 78.7135 80.6852 78.4173 85.298 78.4173C86.4829 78.4173 87.4986 78.3326 87.4986 78.248C87.4986 78.1634 87.8795 76.2167 88.345 73.9738C88.8105 71.7309 89.1913 69.7842 89.1913 69.6572C89.1913 69.5303 86.6522 69.5303 83.6052 69.6149C78.9501 69.7419 77.6382 69.9112 75.9455 70.6729C74.8029 71.223 68.5397 75.4126 61.9802 80.0254C55.4207 84.6382 49.7923 88.5739 49.4961 88.7431C49.1575 88.9547 44.4601 85.8654 36.8427 80.4909C30.1563 75.7935 23.6391 71.4346 22.3696 70.8422C20.2536 69.8688 19.3649 69.7419 14.329 69.6149L8.6582 69.4456L8.91212 70.419Z" fill="#ECF8F9"/>
</svg>
