<svg width="101" height="100" viewBox="0 0 101 100" fill="none" xmlns="http://www.w3.org/2000/svg">
<path d="M39.2128 0.0330166C31.7166 0.113911 30.0717 0.167841 28.6336 0.347608C22.8721 1.08465 17.6858 3.33173 12.8771 7.16974C11.4659 8.29328 8.96715 10.801 7.82563 12.2122C4.01459 16.967 1.50685 22.7645 0.967548 28.0136C0.554085 32.1303 0.464202 35.5908 0.536109 46.3408L0.590039 55.5808H7.32229H14.0455L14.0545 53.5764C14.0635 52.4798 14.0995 47.2936 14.1354 42.0534C14.2073 32.0224 14.2073 32.1573 14.6388 30.1439C15.7084 25.1194 18.6835 20.1848 22.6743 16.8502C25.5506 14.4413 28.4538 12.9313 31.8424 12.0774C34.2063 11.4841 32.894 11.5201 54.1155 11.4572L73.3684 11.4032L80.5681 5.78554L87.7587 0.167841L83.2376 0.113911C74.9144 0.01504 45.7114 -0.0388899 39.2128 0.0330166Z" fill="#ECF8F9"/>
<path d="M38.7376 33.1821L27.709 44.2107V49.8554V55.4911H34.7019C42.8723 55.4911 45.6587 55.6079 48.7866 56.0843C52.5077 56.6596 55.375 58.1426 57.0558 60.3807C58.0715 61.7469 59.0063 64.6861 59.3389 67.6253C59.5276 69.1983 59.6175 71.5083 59.6175 74.5283V77.5125L66.1161 77.4945L72.6056 77.4675L72.6326 73.3329C72.6685 67.5534 72.4798 64.4255 71.9225 61.6571C69.7204 50.6284 61.0197 44.5343 47.0159 44.1928C45.7845 44.1658 44.7868 44.1119 44.7868 44.0849C44.7868 44.0579 48.9034 39.9593 53.9369 34.9797C58.9614 30.0002 63.9229 25.0746 64.9656 24.032L66.8531 22.1444H58.3142H49.7753L38.7376 33.1821Z" fill="#ECF8F9"/>
<path d="M87.0226 47.0597C87.0136 48.5068 86.9776 53.6751 86.9417 58.5467C86.8698 67.9665 86.8698 67.9215 86.4024 70.0518C85.3777 74.7257 82.5913 79.4625 78.96 82.6893C75.7962 85.5117 72.3896 87.2644 68.3808 88.1453L67.1224 88.4149L58.6285 88.4778C53.9545 88.5138 45.101 88.5497 38.9441 88.5587L27.7536 88.5767L20.536 94.2124L13.3184 99.848L18.5585 99.92C27.3581 100.028 61.6665 100.028 66.7629 99.911C72.1109 99.7851 73.0547 99.7042 75.6703 99.084C81.297 97.7538 86.5102 94.7786 90.8516 90.4193C94.357 86.9049 96.8917 82.977 98.5096 78.5907C100.379 73.5123 100.649 70.2046 100.541 53.711L100.487 44.4351H93.7548H87.0315L87.0226 47.0597Z" fill="#ECF8F9"/>
</svg>
