<svg width="86" height="100" viewBox="0 0 86 100" fill="none" xmlns="http://www.w3.org/2000/svg">
<path d="M15.9982 0.559452C16.0506 0.874138 16.2954 2.39512 16.5401 3.93358C18.0261 13.1993 20.5087 22.4825 23.3408 29.5105C27.5716 39.9126 33.5506 47.7623 39.5821 50.8217L40.7884 51.4336L41.68 51.014C44.2849 49.8252 47.5192 47.2028 49.8268 44.4581C56.8373 36.1014 62.4143 21.5385 65.2814 4.09092C65.8758 0.384627 65.9283 -0.0349536 65.7884 0.0349765C65.701 0.052459 64.5122 0.664347 63.1136 1.34617C56.68 4.54547 49.8443 5.97903 40.8233 5.96155C32.0471 5.96155 24.7569 4.42309 18.5331 1.27624C17.1345 0.576935 15.9807 1.14515e-05 15.9457 1.14515e-05C15.9108 1.14515e-05 15.9457 0.262249 15.9982 0.559452ZM31.2604 9.80771C31.1555 10.1224 31.1205 10.8741 31.173 11.6084C31.2604 12.6574 31.3478 12.9021 31.7324 13.2343C32.3268 13.7588 32.7814 13.7413 33.3059 13.1993C33.708 12.8147 33.7429 12.6399 33.7429 11.1189C33.7429 9.96505 33.673 9.44057 33.5331 9.38813C33.4108 9.33568 33.5856 9.28323 33.9177 9.28323L34.5296 9.26575L34.4247 11.014C34.3373 12.1504 34.1975 12.9196 34.0226 13.1993C33.4457 14.0734 31.3653 14.1259 30.5261 13.2867C30.2115 12.972 30.159 12.6748 30.1066 11.1014L30.0366 9.26575H30.7534H31.4527L31.2604 9.80771ZM39.1275 9.37064C39.4247 9.45806 39.5122 9.6154 39.5122 10.0175V10.542L39.145 10.0699C38.638 9.44057 37.4143 9.42309 36.8024 10.0525C35.9282 10.9091 36.3653 12.9021 37.5017 13.3916C38.3583 13.7413 38.9003 13.7063 39.215 13.2343C39.4073 12.972 39.4947 12.9371 39.4947 13.1119C39.5122 13.7063 39.215 13.8811 38.0786 13.8637C36.8373 13.8462 36.0681 13.549 35.5087 12.8322C34.7394 11.8532 35.2464 10.035 36.4177 9.52799C36.9947 9.26575 38.4282 9.19582 39.1275 9.37064ZM43.5506 11.3462C44.0226 12.4476 44.5471 13.4965 44.7045 13.6888C45.0192 14.0385 45.0017 14.0385 44.3198 13.9161C43.9352 13.8462 43.6205 13.7588 43.6205 13.7588C43.6205 13.7413 43.4982 13.479 43.3583 13.1993C43.1136 12.7448 42.9737 12.6748 42.2744 12.6224C41.4877 12.5699 41.4527 12.5874 41.2429 13.1818C41.1031 13.5839 40.8933 13.8112 40.701 13.8112C40.3863 13.8112 40.3513 13.9161 41.9597 10.1748C42.187 9.66785 42.4317 9.28323 42.5191 9.30071C42.6066 9.33568 43.0786 10.2623 43.5506 11.3462ZM47.7289 10.9266C48.2185 11.8357 48.6555 12.5874 48.708 12.5874C48.7429 12.5874 49.1275 11.8881 49.5646 11.0315C50.194 9.73778 50.6835 9.02099 50.701 9.30071C50.7534 10.035 51.4352 13.549 51.5576 13.7063C51.6975 13.8637 51.5926 13.8986 51.138 13.8462C50.5786 13.7762 50.5436 13.7238 50.4213 12.9546C50.3688 12.5175 50.2639 11.8706 50.194 11.5385L50.0716 10.9266L49.3024 12.3602C48.8653 13.1644 48.4457 13.7937 48.3408 13.7588C48.2534 13.7238 47.8513 13.1119 47.4842 12.3951L46.7849 11.1014L46.6275 11.8007C46.5576 12.1853 46.5052 12.8147 46.5401 13.2168C46.5926 13.8637 46.5576 13.9161 46.208 13.8462C45.9108 13.7937 45.8233 13.6713 45.8933 13.3916C45.9457 13.1993 46.1031 12.2727 46.2429 11.3637C46.5226 9.63288 46.6101 9.26575 46.7499 9.26575C46.8024 9.26575 47.2394 10.0175 47.7289 10.9266ZM57.7814 10.6993C57.6241 11.3811 56.9073 12.8671 56.645 13.0245C56.5401 13.0944 56.5052 13.3916 56.5751 13.7413C56.6625 14.2308 56.5926 14.4755 56.208 15.035C55.9457 15.4021 55.631 15.7518 55.4912 15.8042C55.2989 15.8741 55.2639 16.0839 55.3513 16.6084C55.4562 17.2902 55.4387 17.3602 54.6695 18.0769C54.2324 18.479 53.8129 19.0385 53.7429 19.3182C53.5856 19.9825 52.4842 21.049 51.7499 21.2588C51.2779 21.3811 51.1031 21.556 50.9807 22.0105C50.7709 22.7273 49.7744 23.7762 49.3024 23.7762C49.1101 23.7762 48.8303 24.056 48.5681 24.5105C48.2884 25.0525 47.9912 25.3147 47.5716 25.4546C47.2394 25.5595 46.8723 25.8392 46.7324 26.1014C46.5226 26.5385 45.701 27.0979 45.2989 27.0979C45.2115 27.0979 44.8268 27.3077 44.4422 27.5525C43.7779 27.9895 43.7604 28.0245 43.9527 28.5665C44.0576 28.8811 44.4073 29.3881 44.7219 29.7028C45.0192 30.0175 45.2814 30.3672 45.2814 30.4895C45.2814 30.6119 45.4912 30.8916 45.7359 31.1364C46.5576 31.9056 46.8548 32.7273 46.8548 34.2308C46.8548 35.2797 46.9247 35.6818 47.1345 35.8392C47.2744 35.979 47.4842 36.2238 47.5716 36.3986C47.7639 36.7658 47.6066 38.1119 47.3793 38.1119C47.2919 38.1119 47.0996 37.7623 46.9247 37.3252C46.7674 36.8881 46.5401 36.5385 46.4178 36.5385C46.2954 36.5385 45.9982 36.3112 45.7534 36.014C45.3688 35.5769 45.3338 35.4196 45.4562 34.8427C45.5961 34.2483 45.5436 34.0909 44.9143 33.1469C44.5122 32.535 43.8478 31.8532 43.3583 31.521L42.5017 30.9441L42.2919 31.3287C41.8548 32.1504 42.0471 33.1993 43.0261 35.0525C43.9877 36.9056 43.9702 36.8357 44.2849 41.0665C44.3198 41.6084 44.2324 41.7308 43.5856 42.1853C42.8688 42.6574 42.8338 42.7273 42.8338 43.514C42.8338 44.1783 42.7464 44.4231 42.3793 44.7553C42.0122 45.1224 41.9073 45.1399 41.7674 44.9301C41.68 44.7902 41.645 44.4231 41.715 44.1434C41.7849 43.8462 41.8548 43.1818 41.8723 42.6574C41.8898 42.1329 41.9947 41.6783 42.0821 41.6609C42.4317 41.5385 41.7499 38.9511 41.1905 38.1993C40.9632 37.9021 40.6485 37.4126 40.4912 37.0979C40.3338 36.8007 40.1415 36.5385 40.0716 36.5385C40.0017 36.5385 39.7744 36.8357 39.5471 37.2028C39.3198 37.5525 38.9527 38.1119 38.7254 38.4441C38.3408 38.9686 38.3233 39.056 38.5506 39.3881C38.6905 39.5979 38.8129 39.9476 38.8129 40.1574C38.8129 40.4371 38.8828 40.5245 39.0926 40.4371C39.3898 40.3322 39.687 40.6469 39.687 41.1189C39.687 41.2762 39.8793 41.7133 40.124 42.063C40.5436 42.6923 40.7534 44.056 40.4038 44.056C39.9317 44.056 39.0576 43.1993 38.8303 42.5C38.6205 41.8182 38.4982 41.6958 37.5191 41.2588C35.8758 40.5245 35.7884 40.3672 35.8758 38.3392C35.9282 36.7308 35.9807 36.5385 36.6101 35.4196C37.4317 33.9336 37.4143 33.2518 36.4702 32.0455C36.1205 31.5909 35.7709 30.9441 35.666 30.6119C34.9667 27.9021 34.7045 26.9755 34.5821 26.8182C34.3723 26.521 32.0471 25.7518 31.0331 25.6294C30.5611 25.5769 29.9667 25.472 29.7219 25.4196C29.4597 25.3672 29.145 25.4371 28.9352 25.5944C28.638 25.8392 28.6205 25.8916 28.8478 26.049C29.0751 26.2063 29.0576 26.2762 28.708 26.521L28.3233 26.7832L29.7219 29.4581C30.5961 31.1364 31.1205 32.3252 31.1205 32.6748C31.1205 34.0035 30.1765 32.8322 28.7779 29.7553C27.7115 27.4476 27.5191 27.1329 27.2569 27.2902C26.8024 27.5175 26.5226 27.4825 26.6275 27.1853C26.6975 27.0455 26.6275 26.7133 26.4877 26.4511C25.9282 25.3846 26.2429 25.0699 28.673 24.2133C29.5122 23.9336 30.2115 23.6364 30.2289 23.549C30.2989 23.1644 29.2499 21.3462 28.7954 21.1014C28.4807 20.9091 28.131 20.4196 27.7989 19.7028C27.5191 19.0909 27.187 18.4965 27.0296 18.3741C26.6975 18.0944 26.1555 16.6958 26.2954 16.4685C26.3478 16.3811 26.2429 16.1189 26.0681 15.8916C25.5436 15.2098 25.1765 14.3881 25.1765 13.8986C25.1765 13.6539 24.9842 13.0769 24.7569 12.6224C24.3373 11.8007 23.9177 10.472 24.0226 10.3671C24.0576 10.3322 24.7045 11.0664 25.4562 12.0105C27.8513 15.0175 28.4807 15.4371 31.0331 15.7168C32.152 15.8567 32.7464 16.014 33.201 16.3112C35.0017 17.5 35.8408 20.3147 34.9667 22.2203C34.3898 23.514 34.5646 24.0734 35.2289 23.042C35.7884 22.1679 36.4177 21.8007 37.3443 21.8182C38.3583 21.8182 38.9352 22.2203 39.4772 23.2692C39.7919 23.8637 39.8618 24.2133 39.7919 24.8252L39.687 25.6119L40.0366 25.1923C40.4912 24.6679 40.4912 23.7762 40.0366 22.5874C39.5646 21.3462 39.5996 20.6993 40.2115 19.6504C41.173 17.9371 43.2534 16.556 45.6485 16.014C46.2604 15.8567 47.7115 15.6644 48.8653 15.5595C51.3653 15.3322 51.8548 15.2448 52.5366 14.8951C52.8338 14.7553 54.0576 13.6189 55.2989 12.3776C56.5227 11.1539 57.6066 10.1399 57.7115 10.1399C57.8338 10.1399 57.8513 10.3497 57.7814 10.6993Z" fill="#ECF8F9"/>
<path d="M41.9256 11.3462C41.6109 12.1329 41.6633 12.2378 42.3451 12.2378C42.8871 12.2378 42.9395 12.063 42.6423 11.2063C42.3976 10.4895 42.2402 10.5245 41.9256 11.3462Z" fill="#ECF8F9"/>
<path d="M36.3316 22.4825C35.8596 22.7273 35.1952 23.7238 35.3876 23.8986C35.44 23.9511 35.7197 23.7937 36.0169 23.5315C37.3281 22.4476 38.989 23.3392 38.989 25.1574C38.989 25.507 39.0239 25.5595 39.1638 25.3497C39.461 24.8776 39.3561 23.8462 38.9365 23.2343C38.2722 22.2378 37.2932 21.9581 36.3316 22.4825Z" fill="#ECF8F9"/>
<path d="M47.9922 55.472C47.2929 57.3951 43.3594 73.5664 43.3594 74.458C43.3594 74.5804 44.1636 74.6503 45.772 74.6503H48.1846L48.5167 73.2867L48.8664 71.9405L50.702 71.993C51.716 72.0279 52.6776 72.0979 52.8349 72.1328C53.1321 72.2202 53.2195 72.5349 53.4118 74.0559L53.5167 74.9475L55.702 75.1573C56.9083 75.2797 58.0097 75.4195 58.1671 75.472C58.4643 75.5944 58.4818 75.909 57.9573 71.0664C57.3978 65.979 55.9468 56.0489 55.7195 55.8391C55.6321 55.7342 52.3629 55.472 49.9503 55.3496C48.5692 55.2797 48.0447 55.3146 47.9922 55.472ZM52.1181 65.1573C52.3454 66.6258 52.4853 67.8671 52.4328 67.9021C52.3804 67.9545 51.8034 67.9545 51.1566 67.8846C50.0027 67.7797 49.9853 67.7797 50.0901 67.3251C50.5622 65.2797 51.4887 62.2552 51.5936 62.3601C51.6636 62.43 51.8908 63.6888 52.1181 65.1573Z" fill="#ECF8F9"/>
<path d="M29.3718 56.1363C27.8858 56.3111 26.5046 56.5034 26.3123 56.5384C26.12 56.5908 25.2284 57.3601 24.3368 58.2691L22.7109 59.9125L23.7774 65.8391C24.3543 69.0908 24.9137 72.1677 25.0186 72.6573C25.176 73.444 25.2634 73.5838 25.9277 73.951C26.3298 74.1782 27.169 74.6677 27.7809 75.0349L28.8998 75.6992L30.7529 75.4545C31.7669 75.3146 33.2354 75.1398 34.0046 75.0873L35.4033 74.965L36.9417 73.4964L38.4627 72.0454V70.7517C38.4627 70.0349 38.4102 69.0908 38.3578 68.6363L38.2354 67.7971L37.2564 67.902C36.7144 67.9545 35.5781 68.0594 34.7214 68.1118L33.1655 68.2342L33.2704 69.5803C33.3753 71.1538 33.5151 71.0489 31.2949 71.2412L29.9662 71.3636L29.3018 66.3111C28.9347 63.5489 28.62 61.0838 28.6025 60.8391C28.5851 60.4195 28.6375 60.402 30.2459 60.1922C31.155 60.0698 32.0116 60.0174 32.134 60.0524C32.2389 60.0873 32.3438 60.3496 32.3438 60.6293C32.3438 60.909 32.3963 61.5034 32.4487 61.9405L32.5711 62.7447L33.2879 62.6573C33.6725 62.6048 34.8613 62.4999 35.9277 62.4475C38.183 62.3076 38.0256 62.4999 37.8508 59.8775C37.7459 58.2167 37.7109 58.1118 37.2739 57.8496C37.0116 57.6922 36.1375 57.1677 35.3333 56.6782C33.62 55.6118 33.6375 55.6118 29.3718 56.1363Z" fill="#ECF8F9"/>
<path d="M67.2392 57.8321C67.0294 58.5664 63.1133 75.7167 63.1133 75.9265C63.1133 76.2237 68.1308 77.3951 68.3406 77.1678C68.4105 77.0804 68.7776 75.6468 69.1448 74.0034C69.5294 72.3426 69.879 71.0314 69.9489 71.1188C70.0189 71.1888 70.4734 72.7797 70.9804 74.6503C71.4874 76.5209 71.907 78.0769 71.942 78.1118C71.9594 78.1293 73.0608 76.8881 74.407 75.3496C75.7357 73.8111 76.8545 72.6223 76.8895 72.7097C76.907 72.7797 76.6098 74.2132 76.2252 75.8741C75.8406 77.5349 75.5608 78.9335 75.5958 78.9685C75.6832 79.0734 80.8056 80.2622 80.858 80.2097C80.928 80.1223 85.0014 62.2902 85.0189 61.958C85.0538 61.6957 84.6692 61.5559 82.6063 61.0839C81.2601 60.7692 80.0713 60.5069 79.949 60.4895C79.7916 60.4895 76.1028 64.5629 74.879 66.0839C74.7217 66.2587 74.4944 65.5594 73.6028 62.2552L72.6587 58.7762L70.9979 58.409C70.0713 58.1818 68.865 57.9195 68.3231 57.7797C67.414 57.5699 67.3091 57.5874 67.2392 57.8321Z" fill="#ECF8F9"/>
<path d="M11.9949 59.4579C10.5613 59.825 9.35503 60.1747 9.30258 60.2271C9.25014 60.2621 10.0194 63.0418 10.9984 66.381C11.9599 69.7376 12.9215 72.9894 13.0963 73.6362L13.4285 74.8076L11.9424 75.2621C11.1208 75.5243 10.369 75.6817 10.2466 75.6467C10.1417 75.5943 9.7921 74.7551 9.47741 73.7586C7.1872 66.6607 5.52636 61.6083 5.43895 61.5034C5.33405 61.381 0.369015 63.0243 0.106777 63.2866C-0.0156007 63.409 1.41797 67.3425 5.26412 77.4649L5.77112 78.7936L7.83405 79.5278L9.87951 80.2446L12.3271 79.4754C13.6732 79.0558 15.0893 78.6188 15.4739 78.5139C16.0858 78.3565 16.348 78.0943 17.4494 76.5733L18.7257 74.825L17.0299 67.8845C16.1033 64.0558 15.2292 60.4369 15.0893 59.825C14.9494 59.2306 14.7746 58.7411 14.7222 58.7586C14.6522 58.7586 13.4285 59.0733 11.9949 59.4579Z" fill="#ECF8F9"/>
<path d="M9.91454 86.8531L8.56839 88.2168L9.70475 89.3357C10.3341 89.9475 10.8411 90.5245 10.8411 90.5944C10.8411 90.6643 10.0894 90.7343 9.18028 90.7343H7.50195L7.5544 92.6923L7.60685 94.6678L9.25021 94.7203L10.911 94.7727L9.70475 95.979L8.49846 97.2028L9.87958 98.6014L11.2782 100L13.4635 97.8147C14.6698 96.6084 15.7362 95.6294 15.8236 95.6294C15.911 95.6294 16.96 96.5909 18.1313 97.7622L20.2817 99.9126L21.6803 98.514L23.0789 97.1154L21.9076 95.9441L20.7362 94.7727L22.3971 94.7203L24.0404 94.6678L24.0929 92.6923L24.1453 90.7343H22.467C21.5579 90.7343 20.8062 90.6818 20.8062 90.6119C20.8062 90.542 21.3131 89.965 21.9425 89.3357L23.0789 88.1993L21.6803 86.8007L20.2817 85.4021L18.1313 87.5524C16.96 88.7238 15.911 89.6853 15.8236 89.6853C15.7187 89.6853 14.7048 88.7413 13.5509 87.5874C12.3971 86.4336 11.418 85.4895 11.3656 85.4895C11.3131 85.4895 10.6663 86.1014 9.91454 86.8531Z" fill="#ECF8F9"/>
<path d="M56.1202 86.8355C55.5433 87.0453 55.2461 87.4824 55.2461 88.1118C55.2461 88.8285 55.5783 89.2481 56.33 89.423C56.7146 89.5278 56.9069 89.4404 57.344 89.0209C58.0083 88.3565 58.0083 87.867 57.3615 87.2202C56.8545 86.7132 56.6272 86.6432 56.1202 86.8355Z" fill="#ECF8F9"/>
<path d="M47.3789 92.4825V97.9021H48.5153H49.6516V96.9755C49.6516 96.2762 49.739 95.9615 49.9663 95.7517C50.1411 95.5769 50.3509 95.4545 50.4034 95.4545C50.4733 95.4545 50.8929 95.9965 51.33 96.6783L52.1516 97.9021H53.5328C54.5992 97.9021 54.8789 97.8497 54.7915 97.6748C54.7216 97.5699 54.0922 96.6259 53.3754 95.5944C52.6761 94.5804 52.0992 93.6888 52.0992 93.6189C52.0992 93.549 52.7286 92.7972 53.5153 91.9406L54.9314 90.3846H53.4803H52.0118L50.8404 91.6434L49.6691 92.9196L49.6516 89.9825V87.0629H48.5153H47.3789V92.4825Z" fill="#ECF8F9"/>
<path d="M31.1211 88.3741V89.5105H32.7819H34.4428V93.7063V97.9021H35.5791H36.7155V93.7063V89.5105H38.3763H40.0372V88.3741V87.2378H35.5791H31.1211V88.3741Z" fill="#ECF8F9"/>
<path d="M41.3659 90.3845C38.3939 91.2761 37.6946 95.5418 40.2295 97.36C42.24 98.8285 45.1246 98.1817 46.1736 96.0313C47.7645 92.7971 44.8274 89.353 41.3659 90.3845ZM43.6911 92.7621C45.1946 94.0208 43.8659 96.6607 42.1002 95.9264C41.3659 95.6117 41.0862 95.2796 40.9638 94.5103C40.6841 92.7971 42.4149 91.6782 43.6911 92.7621Z" fill="#ECF8F9"/>
<path d="M60.5262 90.5769C57.6591 92.0454 57.6765 96.2762 60.5612 97.7622C62.1346 98.5664 64.4073 98.0419 65.3164 96.6783C65.8584 95.8741 65.8059 95.7867 64.722 95.472C64.0052 95.2622 63.9353 95.2797 63.5507 95.6992C62.9563 96.3286 61.715 96.3461 61.1031 95.7167C60.8584 95.4895 60.666 95.1748 60.666 95.0174C60.666 94.7902 61.0507 94.7552 63.3059 94.7552H65.9633L65.8584 93.7412C65.666 91.5559 64.5297 90.402 62.4493 90.2622C61.4877 90.2097 61.1381 90.2622 60.5262 90.5769ZM63.3409 92.4999C63.9353 93.2342 63.7605 93.3566 62.1521 93.3566C60.6136 93.3566 60.4038 93.2342 60.8933 92.6223C61.4877 91.8706 62.764 91.8006 63.3409 92.4999Z" fill="#ECF8F9"/>
<path d="M73.1311 90.5595C71.7675 91.1714 71.278 92.7098 72.0822 93.8986C72.3794 94.3532 72.7115 94.563 73.5157 94.8252C74.9843 95.2798 75.4213 95.507 75.4913 95.8567C75.5612 96.2413 74.8269 96.5909 74.215 96.4336C73.9703 96.3637 73.6731 96.1189 73.5682 95.8916C73.4458 95.6119 73.271 95.4721 73.0962 95.5245C72.9388 95.5595 72.5192 95.6469 72.1696 95.7168C71.4004 95.8392 71.3479 96.049 71.9073 96.8532C73.0437 98.5315 76.2605 98.5839 77.2745 96.9406C77.729 96.2238 77.729 95.1749 77.2745 94.4406C76.8724 93.7937 76.5402 93.6014 74.9668 93.1993C74.0752 92.9721 73.8479 92.8322 73.8129 92.535C73.6906 91.7308 74.9493 91.6084 75.5437 92.3427C75.7885 92.6574 75.9458 92.6923 76.6451 92.5874C77.5717 92.4476 77.6941 92.0979 77.0997 91.2588C76.3829 90.2623 74.5122 89.9301 73.1311 90.5595Z" fill="#ECF8F9"/>
<path d="M55.4219 94.1434V97.9021H56.5582H57.6946L57.6596 94.1783L57.6072 90.472L56.5233 90.4196L55.4219 90.3671V94.1434Z" fill="#ECF8F9"/>
<path d="M66.6113 94.1434V97.9021H67.7477H68.8841V96.0664C68.8841 93.3916 69.2687 92.6573 70.7022 92.6573H71.3316V91.5035V90.3322L70.5274 90.4371C70.0554 90.4895 69.5834 90.6643 69.3211 90.9091L68.919 91.2937L68.8491 90.8741C68.7966 90.507 68.6917 90.472 67.7127 90.4196L66.6113 90.3671V94.1434Z" fill="#ECF8F9"/>
<path d="M79.232 95.1922C78.2355 95.6293 78.0432 96.7656 78.8299 97.5698C79.4418 98.1817 80.176 98.2342 80.8229 97.7272C81.7495 96.9929 81.5047 95.5069 80.4033 95.1223C80.0886 95.0174 79.8439 94.93 79.8264 94.93C79.8089 94.9475 79.5467 95.0524 79.232 95.1922Z" fill="#ECF8F9"/>
</svg>
