<svg width="146" height="100" viewBox="0 0 146 100" fill="none" xmlns="http://www.w3.org/2000/svg">
<path d="M0.212541 0.10277C0.275508 0.173607 6.72172 5.1401 14.5375 11.1455C22.3532 17.151 28.7364 22.1017 28.7364 22.149C28.7286 22.1962 22.2587 39.4648 14.3486 60.5193C6.44624 81.5737 -0.015713 98.8187 2.86998e-05 98.8345C0.0157704 98.8502 32.3885 87.7445 71.9394 74.1673C111.49 60.5822 143.839 49.4607 143.824 49.4529C143.816 49.4371 116.677 55.3796 83.5253 62.6523C50.3734 69.9249 23.2269 75.8674 23.1954 75.8595C23.1718 75.8438 27.973 62.9986 33.8761 47.3041C39.7713 31.6097 44.5962 18.733 44.5804 18.6779C44.5725 18.6307 42.9433 17.269 40.9677 15.6634L37.3629 12.7512L18.89 6.39943C8.72091 2.91266 0.338474 0.0398033 0.251895 0.0161908C0.11022 -0.0152925 0.11022 -0.00742164 0.212541 0.10277Z" fill="#ECF8F9"/>
<path d="M44.9665 15.2541C45.0058 15.2934 46.6193 16.6078 48.5556 18.1741L52.0817 21.0234L51.9085 21.472C51.8141 21.716 48.0282 31.7985 43.4946 43.8803C36.7729 61.7943 35.2775 65.8399 35.3798 65.8556C35.4506 65.8714 38.9295 65.3204 43.1011 64.6356L50.6886 63.3999L58.3469 43.0145C62.5578 31.8064 65.9895 22.6212 65.9816 22.6054C65.9501 22.5739 44.998 15.1911 44.935 15.1911C44.9114 15.1911 44.9192 15.2226 44.9665 15.2541Z" fill="#ECF8F9"/>
<path d="M69.8377 30.4446C68.6492 33.6323 65.493 42.0698 62.8327 49.1929C60.1723 56.3082 58 62.1405 58.0078 62.1562C58.0393 62.1877 140.738 48.4846 140.888 48.4216C140.982 48.3822 129.554 44.4311 107.004 36.6862C88.2869 30.2636 72.7578 24.9272 72.4902 24.8248L72.01 24.6438L69.8377 30.4446ZM99.5658 40.5744C110.672 43.7778 119.739 46.4145 119.723 46.4303C119.684 46.4775 73.6157 50.5231 73.5763 50.4916C73.5606 50.468 74.8199 46.9104 76.3705 42.5814C78.1886 37.5126 79.2276 34.7106 79.2827 34.7264C79.3378 34.7421 88.4679 37.371 99.5658 40.5744Z" fill="#ECF8F9"/>
<path d="M143.588 53.1992L142.093 53.7186L141.18 55.6234C140.676 56.6702 140.243 57.5517 140.219 57.5753C140.196 57.5989 139.377 57.1739 138.393 56.6308C137.409 56.0877 136.567 55.647 136.512 55.647C136.378 55.647 133.545 56.623 133.545 56.6702C133.553 56.7253 142.518 61.6524 142.549 61.6209C142.565 61.6052 142.439 61.1251 142.274 60.5663C142.108 59.9996 141.967 59.4879 141.967 59.4171C141.967 59.3541 142.675 57.8272 143.541 56.0405C144.407 54.246 145.107 52.7584 145.099 52.7269C145.084 52.6954 144.407 52.9079 143.588 53.1992Z" fill="#ECF8F9"/>
<path d="M129.154 58.1265C126.847 58.9214 124.911 59.5904 124.848 59.614C124.754 59.6455 124.754 59.7006 124.848 59.9918C124.911 60.1807 125.069 60.6923 125.202 61.1331L125.438 61.9281L126.958 61.4165C127.784 61.141 128.516 60.9049 128.579 60.897C128.642 60.8891 128.744 61.078 128.847 61.4165L129.004 61.9517L130.374 62.6994C131.129 63.1166 131.759 63.4393 131.782 63.4235C131.798 63.3999 131.601 62.6837 131.342 61.8179C131.082 60.96 130.869 60.2122 130.869 60.165C130.869 60.1256 131.578 59.8423 132.444 59.5511C133.632 59.1418 134.018 58.9765 134.018 58.8821C134.018 58.7561 133.42 56.7491 133.372 56.7097C133.357 56.7018 131.46 57.3394 129.154 58.1265Z" fill="#ECF8F9"/>
<path d="M122.4 60.4325L121.377 60.8024L121.526 61.377L121.684 61.9516L123.053 62.6993C123.809 63.1164 124.439 63.4391 124.462 63.4155C124.51 63.3683 123.541 60.0547 123.478 60.0626C123.455 60.0626 122.967 60.2278 122.4 60.4325Z" fill="#ECF8F9"/>
<path d="M140.093 61.2433C140.116 61.3063 140.321 61.991 140.549 62.7702C140.785 63.5494 140.982 64.2027 140.998 64.2263C141.029 64.2657 142.989 63.6045 143.083 63.5258C143.115 63.5022 143.091 63.2976 143.02 63.0851C142.91 62.6994 142.895 62.6837 142.06 62.2271C140.337 61.2748 140.045 61.1252 140.093 61.2433Z" fill="#ECF8F9"/>
<path d="M116.543 62.2584C115.284 62.4158 114.024 63.2186 113.261 64.3441C113.017 64.6983 112.615 65.6192 112.607 65.8081C112.607 65.8947 112.954 66.1308 113.623 66.5007C114.182 66.8077 114.654 67.0596 114.677 67.0596C114.709 67.0596 114.748 66.9258 114.78 66.7605C115.079 65.1706 116.685 64.2812 118.054 64.9581C118.298 65.0761 118.597 65.2965 118.723 65.4382L118.943 65.69L120.006 65.3437C120.588 65.147 121.1 64.9659 121.139 64.9266C121.257 64.8164 120.707 64.0057 120.163 63.4941C119.156 62.5417 117.834 62.0931 116.543 62.2584Z" fill="#ECF8F9"/>
<path d="M122.069 63.1482C122.093 63.2426 122.557 64.8325 123.116 66.6743L124.116 70.0352L125.171 69.681C125.966 69.4134 126.225 69.2953 126.225 69.2008C126.217 69.1221 125.91 68.0438 125.533 66.7924L124.848 64.5256L123.439 63.7464C122.235 63.0773 122.038 62.9986 122.069 63.1482Z" fill="#ECF8F9"/>
<path d="M129.372 63.1794C129.412 63.3054 129.735 64.3758 130.089 65.5643C130.435 66.7528 130.734 67.7366 130.742 67.7445C130.75 67.7603 131.246 67.6028 131.828 67.4061L132.899 67.0519L132.749 66.5245C132.662 66.2333 132.497 65.6666 132.379 65.2573L132.151 64.5175L130.75 63.7383C129.979 63.3132 129.341 62.9669 129.325 62.9669C129.31 62.9669 129.333 63.0614 129.372 63.1794Z" fill="#ECF8F9"/>
<path d="M105.5 67.2484L105.209 68.5392L105.784 69.0902C106.657 69.9324 111.427 74.3794 111.451 74.3794C111.608 74.3637 113.851 73.5372 113.859 73.49C113.867 73.4349 105.965 66.0206 105.839 65.9733C105.815 65.9655 105.658 66.5322 105.5 67.2484Z" fill="#ECF8F9"/>
<path d="M121.069 66.7134C119.377 67.2959 119.377 67.2959 119.377 67.5399C119.377 67.9491 119.07 68.6182 118.7 68.9881C118.227 69.4761 117.747 69.6886 117.086 69.6886C116.22 69.6886 115.512 69.2478 115.055 68.4293C114.867 68.0987 114.748 68.0042 113.67 67.4139L112.49 66.7606L112.442 66.9732C112.371 67.3195 112.513 68.3742 112.718 68.9645C112.993 69.7516 113.355 70.3025 113.993 70.9164C114.906 71.7822 115.874 72.1758 117.11 72.1758C119.109 72.1758 120.801 70.8692 121.502 68.7913C121.683 68.2561 121.824 66.5009 121.691 66.5167C121.651 66.5167 121.376 66.6032 121.069 66.7134Z" fill="#ECF8F9"/>
<path d="M98.4555 69.602L97.7314 71.1132L98.2902 72.955C98.5893 73.9625 98.8254 74.8046 98.8097 74.8283C98.7861 74.844 97.1962 73.994 95.2678 72.9314C93.3473 71.861 91.6945 70.9952 91.6079 70.9952C91.5134 70.9952 91.419 71.0266 91.3954 71.0739C91.3403 71.1683 92.1195 73.8365 92.2454 73.9625C92.395 74.1041 99.9037 78.2363 100.022 78.2363C100.085 78.2363 100.565 78.0947 101.092 77.9136L102.052 77.5988L101.927 77.1895C101.328 75.151 99.2268 68.1302 99.2032 68.1144C99.1954 68.0987 98.8569 68.7756 98.4555 69.602Z" fill="#ECF8F9"/>
<path d="M104.156 73.2383C103.683 75.3398 103.313 77.0793 103.337 77.095C103.353 77.1186 103.919 76.9455 104.588 76.7172L105.801 76.3079L106.375 73.7499L106.95 71.1919L106.021 70.3104C105.509 69.8224 105.076 69.4288 105.053 69.421C105.029 69.421 104.628 71.1368 104.156 73.2383Z" fill="#ECF8F9"/>
<path d="M86.5935 72.6874C84.6887 73.3407 83.0752 73.8995 83.0044 73.9231C82.8863 73.9704 82.9257 74.1514 83.3035 75.4186C83.5396 76.2136 83.7757 76.8983 83.8229 76.9534C83.878 77.0085 84.6572 77.4571 85.5624 77.953L87.1995 78.8582L89.4899 78.0711C90.7493 77.646 91.7803 77.284 91.7882 77.2761C91.8197 77.2368 91.1585 75.1038 91.1035 75.0487C91.0798 75.0172 90.2377 75.2769 89.2381 75.6154L87.4199 76.2293L86.743 75.8751C86.3731 75.6783 86.0582 75.4973 86.0425 75.4737C86.0268 75.4501 87.0421 75.0802 88.2936 74.6473C89.5529 74.2222 90.6233 73.8444 90.6706 73.813C90.7257 73.7815 90.6627 73.4273 90.4502 72.711C90.2849 72.1365 90.1275 71.6249 90.1039 71.5776C90.0724 71.5304 88.7658 71.9397 86.5935 72.6874Z" fill="#ECF8F9"/>
<path d="M77.3077 75.8515C74.9701 76.6622 73.0496 77.3233 73.0339 77.3312C73.0102 77.347 73.6399 79.5823 73.6793 79.6295C73.6871 79.6452 74.3483 79.4249 75.1511 79.1494C75.9461 78.8739 76.678 78.6299 76.7646 78.5984C76.9142 78.5512 76.9457 78.5984 77.0795 79.0707C77.2054 79.5114 77.2762 79.6216 77.5045 79.7712C78.0003 80.0781 80.031 81.1722 80.0546 81.1407C80.0704 81.1249 79.8579 80.3694 79.5824 79.4563C79.3069 78.5512 79.0944 77.8035 79.1023 77.8035C79.1101 77.7956 79.8264 77.5437 80.6922 77.2525C81.558 76.9534 82.2821 76.7015 82.2899 76.6937C82.3372 76.6622 81.6524 74.3796 81.5973 74.3875C81.5737 74.3875 79.6453 75.0487 77.3077 75.8515Z" fill="#ECF8F9"/>
<path d="M92.5371 75.0643C92.5371 75.1273 94.0483 80.2197 94.0798 80.2748C94.1034 80.3063 96.0947 79.653 96.1734 79.5821C96.2049 79.5585 96.0318 78.858 95.7878 78.0316L95.3391 76.5361L94.434 76.0324C93.9302 75.7569 93.3006 75.4106 93.033 75.2689C92.7575 75.1194 92.5371 75.0249 92.5371 75.0643Z" fill="#ECF8F9"/>
<path d="M84.1152 78.0552C84.1152 78.1418 85.6028 83.1319 85.6422 83.1712C85.6658 83.1948 92.7731 80.7785 92.8204 80.7313C92.8676 80.684 92.175 78.4723 92.1041 78.4723C92.0648 78.4723 90.9392 78.8501 89.6091 79.3066C88.2789 79.7631 87.1534 80.1173 87.114 80.0858C87.0668 80.0622 87.0117 79.9284 86.9881 79.7868C86.9409 79.5664 86.8464 79.4877 86.0987 79.0705C84.5166 78.1968 84.1152 77.9843 84.1152 78.0552Z" fill="#ECF8F9"/>
<path d="M68.735 78.8268C68.1368 78.9921 67.397 79.3857 66.9641 79.7792C66.6178 80.094 66.0117 80.826 66.0117 80.9362C66.0117 80.9756 67.8614 82.0145 67.9479 82.0145C67.9716 82.0145 68.1762 81.8571 68.3887 81.6603C69.0105 81.1015 69.6874 80.952 70.4981 81.196C70.8208 81.2904 71.0254 81.4242 71.3639 81.7627C71.9306 82.3372 72.0959 82.778 72.0644 83.6753L72.0408 84.3049L73.0168 84.848L74.0006 85.3911L74.1423 84.9425C74.221 84.6985 74.3076 84.1711 74.3312 83.7855C74.465 81.5187 72.9853 79.3621 70.9231 78.8347C70.3407 78.6852 69.2702 78.6852 68.735 78.8268Z" fill="#ECF8F9"/>
<path d="M77.582 80.7001C77.582 80.7473 78.377 83.4155 78.7705 84.7063L78.9988 85.4619L80.0377 85.1156C80.6044 84.9267 81.0846 84.7535 81.1003 84.7378C81.1239 84.7142 80.9744 84.1396 80.7697 83.4549L80.4077 82.2113L79.4868 81.7075C78.983 81.432 78.3455 81.0779 78.0779 80.9362C77.8024 80.7866 77.582 80.6764 77.582 80.7001Z" fill="#ECF8F9"/>
<path d="M61.0941 81.4636C60.7793 81.5344 55.0887 83.4706 55.0257 83.5336C54.9706 83.5808 55.9466 86.7685 56.041 86.8708C56.1355 86.9653 57.1823 87.5477 61.0154 89.6492L63.2113 90.8613L64.8091 90.3104C65.6907 90.0113 66.4069 89.7437 66.4069 89.7122C66.4069 89.6886 65.4703 89.1612 64.3211 88.5394L62.2354 87.4218L62.6446 87.1935C63.3845 86.7921 63.8489 86.2018 64.085 85.3675C64.266 84.7536 64.2109 83.8091 63.9591 83.1558C63.723 82.5182 62.9988 81.7784 62.4321 81.5974C61.9048 81.4242 61.4719 81.3848 61.0941 81.4636ZM61.8812 84.2183C61.9441 84.5017 61.7552 84.9661 61.5191 85.0841C61.4247 85.1392 60.8816 85.336 60.3228 85.5249L59.3074 85.8634L58.7171 85.5328C58.3944 85.3439 58.1189 85.1628 58.111 85.1314C58.0953 85.0212 61.6372 83.8405 61.7395 83.9193C61.7867 83.9586 61.8576 84.0924 61.8812 84.2183Z" fill="#ECF8F9"/>
<path d="M65.5477 81.9906C65.2644 83.0453 65.2329 83.6907 65.4218 84.5723C65.9964 87.2956 68.6803 88.9642 71.1518 88.122C71.9152 87.8623 72.4662 87.516 72.9857 86.965C73.4028 86.5164 73.6862 86.1228 73.6389 86.0677C73.576 86.0126 71.7342 85.0052 71.687 85.0052C71.6634 85.0052 71.5138 85.1311 71.3643 85.2885C70.8999 85.7686 70.5457 85.9103 69.8295 85.9103C69.066 85.9103 68.7197 85.7529 68.1923 85.1626C67.7201 84.6352 67.5627 84.1551 67.602 83.3523L67.6256 82.7305L66.6811 82.2189C66.1538 81.9355 65.7051 81.6994 65.6737 81.6994C65.6501 81.6994 65.5871 81.8332 65.5477 81.9906Z" fill="#ECF8F9"/>
<path d="M50.0749 85.1942C47.7136 86.0049 46.6117 86.422 46.596 86.5007C46.5881 86.5637 46.7612 87.2406 46.9895 87.9962L47.4067 89.3736L49.1225 90.3259L50.8383 91.2783L52.3023 90.7746C54.939 89.8773 55.3877 89.712 55.3877 89.6176C55.3798 89.5153 54.7816 87.5161 54.7344 87.4767C54.7187 87.461 53.8765 87.7286 52.8769 88.0749L51.043 88.7046L50.5943 88.4606C49.8545 88.0434 49.6341 87.9017 49.6656 87.8703C49.6813 87.8466 50.736 87.4767 52.0111 87.0438C53.2783 86.6109 54.333 86.241 54.3487 86.2252C54.3645 86.2095 54.2464 85.7609 54.089 85.2257C53.9316 84.6983 53.782 84.1946 53.7663 84.1159C53.7427 84.045 53.6797 83.9821 53.6325 83.9899C53.5774 83.9978 51.9796 84.533 50.0749 85.1942Z" fill="#ECF8F9"/>
<path d="M40.0623 88.6101C36.4417 89.8537 35.0801 90.3496 35.0801 90.4362C35.0801 90.5542 35.6783 92.5692 35.7255 92.5928C35.7412 92.6085 36.8589 92.2307 38.2205 91.7585C39.5822 91.2941 40.7077 90.9242 40.7235 90.9399C40.7392 90.9478 39.7711 92.9942 38.5826 95.4735C37.3862 97.9528 36.4181 99.9914 36.4339 99.9992C36.4496 100.015 37.1265 99.7867 37.9372 99.4955L39.4169 98.976L41.9356 93.7419C45.2492 86.8786 45.2413 86.8943 45.1311 86.9022C45.076 86.9022 42.7935 87.6735 40.0623 88.6101Z" fill="#ECF8F9"/>
<path d="M56.3545 88.122C56.386 88.2085 56.693 89.2475 57.0471 90.436C57.4013 91.6245 57.7162 92.6241 57.7398 92.6556C57.7713 92.687 58.2593 92.5532 58.826 92.3565L59.8492 91.9944L59.6209 91.2388C59.495 90.8138 59.3297 90.2471 59.2431 89.9637L59.0857 89.4521L57.787 88.7438C56.2679 87.9173 56.2994 87.9331 56.3545 88.122Z" fill="#ECF8F9"/>
<path d="M47.7675 90.5621C48.106 91.8136 49.2866 95.6309 49.3338 95.6152C49.3574 95.5994 50.9788 95.0485 52.9229 94.3795L56.4648 93.1674L56.1264 92.0733C55.9453 91.4673 55.78 90.9635 55.7643 90.9399C55.7407 90.9242 54.6545 91.2784 53.3322 91.727C52.0178 92.1835 50.8923 92.5613 50.8293 92.577C50.7584 92.5928 50.6797 92.4905 50.6246 92.2937C50.5302 91.9552 50.6876 92.0654 48.2713 90.7195C47.8226 90.4677 47.736 90.4441 47.7675 90.5621Z" fill="#ECF8F9"/>
<path d="M43.667 95.0329L41.8173 95.6705L41.1247 97.1187C40.739 97.9137 40.4399 98.5827 40.4557 98.5984C40.5265 98.6614 46.3352 96.6307 46.3352 96.5441C46.3352 96.489 46.2014 95.9853 46.0282 95.4265C45.8393 94.7889 45.6898 94.4111 45.6189 94.4033C45.556 94.3954 44.6823 94.6787 43.667 95.0329Z" fill="#ECF8F9"/>
</svg>
